<svg width="12" height="7" viewBox="0 0 12 7" fill="none" xmlns="http://www.w3.org/2000/svg">
<path d="M1.79715 0C1.60844 4.02553e-05 1.4236 0.0534754 1.26397 0.154131C1.10435 0.254786 0.976466 0.398554 0.895098 0.568819C0.813731 0.739084 0.782201 0.928898 0.804153 1.11633C0.826104 1.30375 0.900641 1.48114 1.01915 1.628L4.83315 6.351C4.97375 6.52511 5.15153 6.66556 5.35346 6.76204C5.55539 6.85853 5.77635 6.9086 6.00015 6.9086C6.22395 6.9086 6.44491 6.85853 6.64684 6.76204C6.84877 6.66556 7.02655 6.52511 7.16715 6.351L10.9822 1.628C11.1007 1.48114 11.1752 1.30375 11.1971 1.11633C11.2191 0.928898 11.1876 0.739084 11.1062 0.568819C11.0248 0.398554 10.897 0.254786 10.7373 0.154131C10.5777 0.0534754 10.3929 4.02553e-05 10.2042 0H1.79715Z" fill="#4D4D4D"/>
</svg>
