<svg xmlns="http://www.w3.org/2000/svg" width="16.001" height="16" viewBox="0 0 16.001 16">
  <defs>
    <style>
      .a {
        fill: rgba(0, 0, 0, 0.4);
      }
    </style>
  </defs>
  <path class="a"
    d="M14.574,5.669,13.15,7.093c.278.347.506.664.669.907-.76,1.13-2.85,3.82-5.561,3.985L6.443,13.8A6.392,6.392,0,0,0,8,14c4.707,0,7.744-5.284,7.871-5.508a1,1,0,0,0,0-.98A13.292,13.292,0,0,0,14.574,5.669Z"
    transform="translate(0 0)" />
  <path class="a"
    d="M.293,15.707a1,1,0,0,0,1.414,0l14-14A1,1,0,0,0,14.293.293L11.548,3.038A6.958,6.958,0,0,0,8,2C3.245,2,.251,7.289.126,7.514a1,1,0,0,0,0,.975,14.438,14.438,0,0,0,2.693,3.276L.292,14.294A1,1,0,0,0,.293,15.707ZM2.181,8C2.958,6.835,5.146,4,8,4a4.794,4.794,0,0,1,2.078.508L8.512,6.074A1.925,1.925,0,0,0,8,6,2,2,0,0,0,6,8a1.925,1.925,0,0,0,.074.512L4.24,10.346A12.6,12.6,0,0,1,2.181,8Z"
    transform="translate(0 0)" />
</svg>