<svg id="e4mrOlt2edK1" xmlns="http://www.w3.org/2000/svg" xmlns:xlink="http://www.w3.org/1999/xlink"
  viewBox="0 0 1082.09595 583.57701" shape-rendering="geometricPrecision" text-rendering="geometricPrecision">
  <style>
    <![CDATA[
    #e4mrOlt2edK21_to {
      animation: e4mrOlt2edK21_to__to 2000ms linear infinite normal forwards
    }

    @keyframes e4mrOlt2edK21_to__to {
      0% {
        transform: translate(127.245961px, 425.496034px)
      }

      100% {
        transform: translate(127.245961px, 413.33898px)
      }
    }

    #e4mrOlt2edK21 {
      animation: e4mrOlt2edK21_c_o 2000ms linear infinite normal forwards
    }

    @keyframes e4mrOlt2edK21_c_o {
      0% {
        opacity: 0.75
      }

      40% {
        opacity: 0.38;
        animation-timing-function: cubic-bezier(0.42, 0, 0.58, 1)
      }

      100% {
        opacity: 0
      }
    }

    #e4mrOlt2edK22_to {
      animation: e4mrOlt2edK22_to__to 2000ms linear infinite normal forwards
    }

    @keyframes e4mrOlt2edK22_to__to {
      0% {
        transform: translate(151.259787px, 438.488347px)
      }

      30% {
        transform: translate(151.259787px, 431.817406px)
      }

      60% {
        transform: translate(151.259787px, 430.483218px)
      }

      100% {
        transform: translate(151.259787px, 425.496034px)
      }
    }

    #e4mrOlt2edK22 {
      animation: e4mrOlt2edK22_c_o 2000ms linear infinite normal forwards
    }

    @keyframes e4mrOlt2edK22_c_o {
      0% {
        opacity: 0.75
      }

      50% {
        opacity: 0.27
      }

      100% {
        opacity: 0
      }
    }

    #e4mrOlt2edK23_to {
      animation: e4mrOlt2edK23_to__to 2000ms linear infinite normal forwards
    }

    @keyframes e4mrOlt2edK23_to__to {
      0% {
        transform: translate(109.979467px, 438.488347px)
      }

      30% {
        transform: translate(109.979467px, 430.483218px)
      }

      100% {
        transform: translate(109.979467px, 425.496034px)
      }
    }

    #e4mrOlt2edK23 {
      animation: e4mrOlt2edK23_c_o 2000ms linear infinite normal forwards
    }

    @keyframes e4mrOlt2edK23_c_o {
      0% {
        opacity: 0.75
      }

      30% {
        opacity: 0.61
      }

      50% {
        opacity: 0.2
      }

      100% {
        opacity: 0
      }
    }
    ]]>
  </style>
  <path id="e4mrOlt2edK2"
    d="M932.524,741.78851L276.399,741.78851C269.692,741.78151,264.257,737.18251,264.249,731.50751L264.249,256.73951C264.257,251.06351,269.692,246.46451,276.399,246.45851L932.525,246.45851C939.232,246.46551,944.66795,251.06451,944.675,256.74051L944.675,731.51051C944.66707,737.18847,939.232,741.78851,932.524,741.78851ZM276.399,250.57051C272.375,250.57051,269.113,253.33351,269.109,256.73951L269.109,731.51051C269.109,734.91551,272.375,737.67551,276.4,737.67951L932.526,737.67951C936.55,737.67951,939.812,734.91551,939.816,731.51051L939.816,256.73951C939.816,253.33451,936.55,250.57451,932.526,250.57051Z"
    transform="matrix(1 0 0 1 -58.952 -158.211)" fill="rgb(230,230,230)" stroke="none" stroke-width="1" />
  <path id="e4mrOlt2edK3"
    d="M546.258,439.30148L721.25807,404.30948L725.05807,500.32048L711.35807,609.08248L721.25807,738.79048L532.525,738.79048L537.437,588.29848C537.437,588.29848,495.325,528.88148,520.134,468.99048Z"
    transform="matrix(1 0 0 1 -58.952 -158.211)" fill="rgb(108,99,255)" stroke="none" stroke-width="1" />
  <path id="e4mrOlt2edK4"
    d="M936.476,211.54248C938.251314,219.700311,936.322227,228.225503,931.207769,234.824312C926.093311,241.42312,918.318798,245.41777,909.976,245.73348L742.162,440.33348L703.146,392.98348L880.37,216.59148C880.777431,202.223647,891.867576,190.431676,906.183431,189.144477C920.499287,187.857277,933.515079,197.48178,936.479,211.54648Z"
    transform="matrix(1 0 0 1 -58.952 -158.211)" fill="rgb(254,184,184)" stroke="none" stroke-width="1" />
  <path id="e4mrOlt2edK5"
    d="M778.697,419.09451C778.777001,422.772122,777.250463,426.302034,774.516,428.76251L727.329,471.24051C715.01305,486.235041,692.873531,488.40646,677.879,476.09051C662.884469,463.77456,660.71305,441.635041,673.029,426.64051L705.97011,372.13051C707.8724,368.981993,711.051002,366.817478,714.677555,366.20105C718.304108,365.584623,722.019365,366.577346,724.85511,368.92051L774.10816,409.62051C776.945328,411.962781,778.620859,415.425204,778.69716,419.10351Z"
    transform="matrix(1 0 0 1 -58.952 -158.211)" fill="rgb(108,99,255)" stroke="none" stroke-width="1" />
  <path id="e4mrOlt2edK6"
    d="M271.86,668.85352C271.328928,660.520977,274.515911,652.38117,280.563405,646.624336C286.610898,640.867503,294.897693,638.084994,303.194,639.02552L498.307,471.81452L529.776,524.48252L328.091,672.28252C325.532631,686.427081,312.798257,696.421967,298.450886,695.54629C284.103515,694.670613,272.67919,683.201227,271.86,668.85052Z"
    transform="matrix(1 0 0 1 -58.952 -158.211)" fill="rgb(254,184,184)" stroke="none" stroke-width="1" />
  <circle id="e4mrOlt2edK7" r="71.242" transform="matrix(1 0 0 1 568.63 126.81)" fill="rgb(63,61,86)" stroke="none"
    stroke-width="1" />
  <path id="e4mrOlt2edK8"
    d="M458.995,487.3255C459.467673,483.677373,461.506423,480.41625,464.579,478.3935L517.606,443.4765C526.887485,435.018885,539.977314,432.158063,551.940894,435.972503C563.904475,439.786943,572.92259,449.696612,575.595598,461.96577C578.268606,474.234928,574.190042,486.997892,564.89744,495.44329Q564.74803,495.57929,564.59708,495.7135L523.84608,544.6745C521.492873,547.5016,518.025675,549.164437,514.34793,549.229727C510.670184,549.295017,507.14615,547.756293,504.69408,545.0145L462.10608,497.3895C459.652024,494.648351,458.514647,490.973691,458.99108,487.3255Z"
    transform="matrix(1 0 0 1 -58.952 -158.211)" fill="rgb(108,99,255)" stroke="none" stroke-width="1" />
  <circle id="e4mrOlt2edK9" r="64.502" transform="matrix(1 0 0 1 561.89 171.788)" fill="rgb(254,184,184)" stroke="none"
    stroke-width="1" />
  <path id="e4mrOlt2edK10"
    d="M664.769,158.21149C659.384791,165.900518,651.404522,171.386065,642.297,173.65849C626.584,177.86649,642.169,201.47749,642.169,201.47749C642.169,201.47749,636.502,192.89149,644.676,183.79849C652.85,174.70549,666.005,168.48949,664.769,158.21149Z"
    transform="matrix(1 0 0 1 -58.952 -158.211)" fill="rgb(63,61,86)" stroke="none" stroke-width="1" />
  <circle id="e4mrOlt2edK11" r="19.854" transform="matrix(1 0 0 1 580.433 48.93)" fill="rgb(63,61,86)" stroke="none"
    stroke-width="1" />
  <path id="e4mrOlt2edK12"
    d="M669.053,223.78349C652.867,217.66149,625.917,214.55749,612.053,216.68349L613.953,202.79849C627.283,209.68749,654.11,212.92549,670.953,209.89849Z"
    transform="matrix(1 0 0 1 -58.952 -158.211)" fill="rgb(108,99,255)" stroke="none" stroke-width="1" />
  <path id="e4mrOlt2edK13"
    d="M631.657,226.38049C631.657,226.38049,611.372,260.12049,564.203,272.75149C517.034,285.38249,563.818,356.26449,563.818,356.26449C563.818,356.26449,546.806,330.48949,571.344,303.19249C595.882,275.89549,635.369,257.23349,631.657,226.38049Z"
    transform="matrix(1 0 0 1 -58.952 -158.211)" fill="rgb(63,61,86)" stroke="none" stroke-width="1" />
  <path id="e4mrOlt2edK14"
    d="M639.344,226.7015C639.344,226.7015,658.831,273.0455,680.225,277.4275C701.619,281.8095,699.996,355.0375,666.54,366.0185C666.54,366.0185,690.94,323.0885,670.083,294.2975C649.226,265.5065,636.058,242.74649,639.344,226.7015Z"
    transform="matrix(1 0 0 1 -58.952 -158.211)" fill="rgb(63,61,86)" stroke="none" stroke-width="1" />
  <rect id="e4mrOlt2edK15" width="1082.1" height="2" rx="0" ry="0" transform="matrix(1 0 0 1 0 580.58)"
    fill="rgb(230,230,230)" stroke="none" stroke-width="1" />
  <path id="e4mrOlt2edK16"
    d="M247.83008,691.25848C247.830345,686.196293,245.819654,681.341334,242.240334,677.76164C238.661015,674.181946,233.806267,672.170745,228.74408,672.17048L228.74298,672.17048L228.74298,657.48748L155.327,657.48748L155.327,730.14855C155.327,735.430601,159.608949,739.71255,164.891,739.71255L219.179,739.71255C224.461051,739.71255,228.743,735.430601,228.743,730.14855L228.743,710.34644C239.284636,710.345932,247.830058,701.800116,247.83008,691.25848ZM228.74308,703.00342L228.74296,703.00354L228.74296,679.51054C235.230351,679.510507,240.489447,684.769549,240.48948,691.25694C240.489513,697.744331,235.230471,703.003427,228.74308,703.00346Z"
    transform="matrix(1 0 0 1 -58.952 -158.211)" fill="rgb(230,230,230)" stroke="none" stroke-width="1" />
  <path id="e4mrOlt2edK17"
    d="M1032.41906,669.92748C1046.79506,685.35348,1047.53806,708.02748,1047.53806,708.02748C1047.53806,708.02748,1024.97306,705.68948,1010.59706,690.26348C996.22106,674.83748,995.47806,652.16348,995.47806,652.16348C995.47806,652.16348,1018.043,654.50151,1032.41906,669.92748Z"
    transform="matrix(1 0 0 1 -58.952 -158.211)" fill="rgb(230,230,230)" stroke="none" stroke-width="1" />
  <path id="e4mrOlt2edK18"
    d="M1077.676,694.00652C1062.25,708.38252,1039.576,709.12552,1039.576,709.12552C1039.576,709.12552,1041.914,686.56052,1057.34,672.18452C1072.766,657.80852,1095.44,657.06552,1095.44,657.06552C1095.44,657.06552,1093.103,679.63048,1077.676,694.00652Z"
    transform="matrix(1 0 0 1 -58.952 -158.211)" fill="rgb(230,230,230)" stroke="none" stroke-width="1" />
  <path id="e4mrOlt2edK19"
    d="M1073.842,739.7935L1017.103,739.7935C1014.881636,739.794388,1012.854889,738.526458,1011.884,736.5285L999.531,711.1335C998.654059,709.335024,998.76604,707.211546,999.827275,705.515278C1000.888509,703.819011,1002.749116,702.789525,1004.75,702.7915L1086.196,702.7915C1088.196869,702.789563,1090.057446,703.819057,1091.118673,705.515311C1092.179899,707.211566,1092.291899,709.335021,1091.415,711.1335L1079.062,736.5275C1078.091111,738.525458,1076.064364,739.793388,1073.843,739.7925Z"
    transform="matrix(1 0 0 1 -58.952 -158.211)" fill="rgb(229,229,229)" stroke="none" stroke-width="1" />
  <path id="e4mrOlt2edK20" d="" fill="none" stroke="rgb(63,87,135)" stroke-width="2.164192" />
  <g id="e4mrOlt2edK21_to" transform="translate(127.245961,425.496034)">
    <path id="e4mrOlt2edK21"
      d="M143.77169,477.83069C139.2247,465.70538,127.83774,456.94183,126.61784,443.523C124.68668,422.28023,146.83609,406.60623,136.91015,366.90248"
      transform="scale(1,0.721316) translate(-135.138443,-422.366585)" opacity="0.75" fill="none"
      stroke="rgb(63,87,135)" stroke-width="3" />
  </g>
  <g id="e4mrOlt2edK22_to" transform="translate(151.259787,438.488347)">
    <path id="e4mrOlt2edK22"
      d="M143.77169,477.83069C139.2247,465.70538,127.83774,456.94183,126.61784,443.523C124.68668,422.28023,146.83609,406.60623,136.91015,366.90248"
      transform="scale(1,0.778217) translate(-135.138443,-422.366585)" opacity="0.75" fill="none"
      stroke="rgb(63,87,135)" stroke-width="3" />
  </g>
  <g id="e4mrOlt2edK23_to" transform="translate(109.979467,438.488347)">
    <path id="e4mrOlt2edK23"
      d="M143.77169,477.83069C139.2247,465.70538,127.83774,456.94183,126.61784,443.523C124.68668,422.28023,146.83609,406.60623,136.91015,366.90248"
      transform="scale(1,0.733827) translate(-135.138443,-422.366585)" opacity="0.75" fill="none"
      stroke="rgb(63,87,135)" stroke-width="3" />
  </g>
</svg>
